<svg id="Layer_1" data-name="Layer 1" xmlns="http://www.w3.org/2000/svg" viewBox="0 0 227.73 228.01"><defs><style>.cls-1{fill:#302f31;}.cls-2{fill:#ed64a3;}.cls-3{fill:#9d7d5b;}.cls-4{fill:#a54772;}.cls-5{fill:#e1b181;}.cls-6{fill:#a34772;}.cls-7{fill:#c19970;}.cls-8{fill:#fdfafb;}.cls-9{fill:#fdfafc;}.cls-10{fill:#fdfbfc;}.cls-11{fill:#fcfbfb;}</style></defs><title>donut-logo</title><path class="cls-1" d="M-1199.93,667.07c-3.18-1-6.54-1.05-9.8-1.65a112.28,112.28,0,0,1-60.61-32,110.6,110.6,0,0,1-32.31-67.06,114,114,0,0,1,87.08-124.34c59.46-14,120.35,22.07,135.64,81.25,10.93,42.31.74,79.8-30,111-18.83,19.1-42.12,29.7-68.91,32.35-.36,0-.76,0-.91.42Zm64.54-59.66v0a5.48,5.48,0,0,0-3.14,2.27,9.62,9.62,0,0,0-2.31,6.56c0,3.79.12,7.58-.29,11.38-1.41,13.24-16.47,21.9-28.66,16.46-6.19-2.76-10-7.52-12.21-13.75a51.76,51.76,0,0,1-.52-9.14c0-6.06-4.21-10.53-9.82-10.57s-9.53,4.26-9.51,10.45a36.26,36.26,0,0,1-1.43,11.49l-.93,1.78a20.67,20.67,0,0,1-28.18,8.91c-7.32-3.85-10.85-10.17-11.16-18.36,0-3.72.48-7.47-.34-11.14a9.82,9.82,0,0,0-10.29-7.5c-5.1.58-8.91,4.54-8.88,9.23a5.09,5.09,0,0,0-.12.66c-.45,9-.5,9,6.37,15,18.19,15.8,39.48,24,63.45,25.1a98.38,98.38,0,0,0,35-4.87,101.68,101.68,0,0,0,35.83-20.21c.75-.66,1.62-1.23,1.58-2.53-.13-4,0-7.92-.2-11.87-.31-7.73-6.68-12.33-13.36-9.73C-1134.83,607-1135.21,607-1135.39,607.41Zm-81.12,24.74c2.45-1.52,3.35-3.92,3.57-6.61.15-1.93,0-3.89.08-5.82.32-6.37,2.72-11.8,7.82-15.72,6.65-5.11,14-5.85,21.52-2.31s11.51,9.9,11.89,18.34c.1,2.38-.36,4.79.41,7.12,1.36,4.65,5.18,7.69,9.56,7.59a10,10,0,0,0,9.5-7.72,25.13,25.13,0,0,0,.09-7.55c.06-1.26.14-2.53.17-3.79a21.1,21.1,0,0,1,14.34-19.4c4.79-1.59,9.52-1.12,14.25.27.39.22.76.47,1.16.67,6.34,3.32,10.38,8.38,11.6,15.5.3,1.7.32,3.45.48,5.26a2.55,2.55,0,0,0,.55-.33A101.47,101.47,0,0,0-1087,559.83a98.4,98.4,0,0,0-3.06-32.58c-1.62-6-3.4-11.88-6.45-17.31-.35-.9-.63-1.83-1.06-2.7-21.21-43.42-71.39-66.28-118.1-53.83a103,103,0,0,0-74.39,122c2.06,9.52,5.15,18.69,10.4,27,1.27,3.46,3.43,6.35,5.71,9.76l1.37-4.35c.15-.26.3-.51.44-.78,4.27-8.33,12.72-12.9,21.56-11.67a20.84,20.84,0,0,1,17.69,17.23c.69,3.76.18,7.6.28,11.41,0,1.88.14,3.73,1.36,5.31C-1229.28,634.61-1220.59,636.83-1216.51,632.15Z" transform="translate(1303.41 -439.06)"/><path class="cls-2" d="M-1123.31,596.55c-4.73-1.39-9.46-1.86-14.25-.27a21.1,21.1,0,0,0-14.34,19.4c0,1.26-.11,2.53-.17,3.79-2.16.43-3.9,1.77-5.87,2.63-4.34,1.91-8.6,4-13.28,5-.77-2.33-.31-4.74-.41-7.12-.38-8.44-4.32-14.76-11.89-18.34s-14.87-2.8-21.52,2.31c-5.1,3.92-7.5,9.35-7.82,15.72-.1,1.93.07,3.89-.08,5.82-.22,2.69-1.12,5.09-3.57,6.61-4.87-1.19-9.81-2-14.75-2.79-1.22-1.58-1.31-3.43-1.36-5.31-.1-3.81.41-7.65-.28-11.41a20.84,20.84,0,0,0-17.69-17.23c-8.84-1.23-17.29,3.34-21.56,11.67-.14.27-.29.52-.44.78a7.39,7.39,0,0,1-2.63-1.94,15.82,15.82,0,0,0-4.45-3.47c-5.25-8.32-8.34-17.49-10.4-27a103,103,0,0,1,74.39-122c46.71-12.45,96.89,10.41,118.1,53.83.43.87.71,1.8,1.06,2.7a3.28,3.28,0,0,0-.07,2c.3,3.62,1,7.23.59,10.89-3.23-3.61-7.41-3.88-9.51-.36-2.37,4-4.39,8.13-6.53,12.23a4.74,4.74,0,0,0-.43,1.72,5.31,5.31,0,0,0,3.82,5.63,5.22,5.22,0,0,0,6.43-2.66c2.13-3.76,4.15-7.58,6.21-11.38a82.72,82.72,0,0,1-1.24,13,101.12,101.12,0,0,1-10.47,32.06c-1.09-1.31-2.19-2.61-3.26-3.94-2.29-2.82-5.41-3.34-8-1.3s-2.76,5.22-.58,8.1l5.76,7.62c-.38.63-.71,1.29-1.15,1.88C-1117.72,589.15-1120.52,592.85-1123.31,596.55Zm-66.32-81.1A37.6,37.6,0,0,0-1227.32,553a37.65,37.65,0,0,0,37.62,37.87A37.74,37.74,0,0,0-1152,553.3,37.7,37.7,0,0,0-1189.63,515.45Zm33.58,85.23h0v-3.14c0-1.12,0-2.24,0-3.36a5.26,5.26,0,0,0-5.35-5.21,5.16,5.16,0,0,0-5.48,5c-.37,4.25-.29,8.5-.29,12.76,0,3.59,2.32,6.06,5.52,6.06s5.45-2.45,5.54-6.07C-1156,604.71-1156,602.69-1156,600.68Zm-86.82-42.6c3.38.06,6.32-3.17,5.5-6.37-1.17-4.54-2.51-9-4-13.49a5.3,5.3,0,0,0-6.73-3.29,5.41,5.41,0,0,0-3.63,6.55c1.18,4.31,2.46,8.59,3.8,12.84A5.29,5.29,0,0,0-1242.87,558.08Zm27.28-92.34a5.38,5.38,0,0,0-3.51-5.3,5.29,5.29,0,0,0-6.33,1.94q-3.83,5.1-7.46,10.31a5.48,5.48,0,0,0,1,7.76,5.49,5.49,0,0,0,7.88-1.36c2.47-3.35,4.86-6.76,7.29-10.15A4.83,4.83,0,0,0-1215.59,465.74Zm25.91,22a5.13,5.13,0,0,0,5.24-3.74c1.36-4.17,2.63-8.38,3.81-12.6a5.3,5.3,0,0,0-3.59-6.72,5.26,5.26,0,0,0-6.69,3.31c-1.47,4.29-2.83,8.63-4,13A5.32,5.32,0,0,0-1189.68,487.72Zm70.58,60.48c-4.12.26-7.93.35-11.71.78a5.3,5.3,0,0,0-5,6,5.46,5.46,0,0,0,5.92,4.89c4.4-.19,8.79-.49,13.18-.87a5.24,5.24,0,0,0,4.68-5.6,5.25,5.25,0,0,0-5.14-5.18C-1117.92,548.17-1118.67,548.2-1119.1,548.2Zm-18.63-34.52a4.86,4.86,0,0,0-4.86,3.28c-1.48,4.52-2.87,9.08-4,13.7a5.15,5.15,0,0,0,4,6.24,5.35,5.35,0,0,0,6.38-3.59c1.37-4.24,2.68-8.52,3.82-12.83A5.36,5.36,0,0,0-1137.73,513.68Zm-24.45-18.78a5.3,5.3,0,0,0-3.87-5.7,5.44,5.44,0,0,0-6.42,2.88c-2,3.73-4,7.5-5.94,11.3a5.37,5.37,0,0,0,2.16,7.33,5.3,5.3,0,0,0,7.46-2.3c2-3.65,4-7.37,5.94-11.05A5,5,0,0,0-1162.18,494.9Zm-69.58,78a5.42,5.42,0,0,0-3.55-5,5.11,5.11,0,0,0-5.92,1.41c-2.88,3.53-5.73,7.09-8.42,10.76a5.38,5.38,0,0,0,1.06,7.43,5.48,5.48,0,0,0,7.78-1c2.57-3.21,5.09-6.45,7.62-9.69A5.69,5.69,0,0,0-1231.76,572.88Zm-36-33.16c4.6,0,7.13-4.25,5.2-8.15s-4-7.66-6.09-11.43A5.36,5.36,0,0,0-1276,518a5.3,5.3,0,0,0-2.33,7.09c2,4,4.1,7.93,6.23,11.86A5.2,5.2,0,0,0-1267.81,539.72Zm-13.74,26.72c0,4.6,3.78,7.48,7.26,5.9a137.58,137.58,0,0,0,12.65-6.69,5.24,5.24,0,0,0,1.62-7.3,5.34,5.34,0,0,0-7-2.07c-4,2-7.93,4.15-11.85,6.32A4.85,4.85,0,0,0-1281.55,566.44Zm129.35-85a5.12,5.12,0,0,0,4.85-2.8,5.09,5.09,0,0,0-.42-5.89c-2.45-3.48-4.92-7-7.45-10.37a5.37,5.37,0,0,0-7.53-1.36,5.39,5.39,0,0,0-1.36,7.69c2.41,3.51,4.93,6.94,7.44,10.38A5,5,0,0,0-1152.2,481.48Zm-84.92,10.65c-.07-4.93-4.19-7.39-8.06-5.48s-7.69,4-11.45,6.12a5.25,5.25,0,0,0-2.14,7.32,5.35,5.35,0,0,0,7.32,2.27c3.93-2,7.81-4.07,11.65-6.22A4.94,4.94,0,0,0-1237.12,492.13Zm31.95,18.06c3.87.06,6.79-3.72,5.22-7.14-2-4.34-4.27-8.56-6.66-12.69a5.22,5.22,0,0,0-7.27-1.72,5.37,5.37,0,0,0-2.19,7c2,4,4.14,7.95,6.31,11.86A4.85,4.85,0,0,0-1205.17,510.19Zm-18.68,99.12a4.46,4.46,0,0,0,4.32-2.36c2.31-4.09,4.56-8.23,6.59-12.46a5.26,5.26,0,0,0-2.3-6.76,5.25,5.25,0,0,0-7.13,1.66,136.53,136.53,0,0,0-6.7,12.65C-1230.69,605.62-1228,609.3-1223.85,609.31Zm-3.79-89.38c-.27-3.25.11-5.88-.43-8.46a5.33,5.33,0,0,0-6-4.5,5.37,5.37,0,0,0-4.82,5.3c0,4.55.16,9.11.45,13.65a5.34,5.34,0,0,0,5.7,4.86,5.23,5.23,0,0,0,5.07-5.45C-1227.61,523.32-1227.64,521.3-1227.64,519.93Zm92,64.64a5.39,5.39,0,0,0,5.31-4,5.34,5.34,0,0,0-2.67-6.27q-5.46-3.06-11-5.92c-3.18-1.63-6.38-.67-7.83,2.22s-.25,5.86,2.8,7.51q5.11,2.77,10.26,5.5A6.26,6.26,0,0,0-1135.68,584.57Zm22.82-79a4.69,4.69,0,0,0-2.24-4.58c-4.16-2.33-8.34-4.64-12.63-6.71a5.23,5.23,0,0,0-6.72,2.43c-1.22,2.26-.73,5.53,1.41,6.85a93.81,93.81,0,0,0,13.21,7C-1116.51,511.91-1112.92,509.14-1112.86,505.53Z" transform="translate(1303.41 -439.06)"/><path class="cls-3" d="M-1182,630.3c2.22,6.23,6,11,12.21,13.75,12.19,5.44,27.25-3.22,28.66-16.46.41-3.8.26-7.59.29-11.38a9.62,9.62,0,0,1,2.31-6.56c1.83.33,2.38-1.11,3.14-2.27v0a.93.93,0,0,0,.93-.42c6.68-2.6,13,2,13.36,9.73.15,3.95.07,7.92.2,11.87,0,1.3-.83,1.87-1.58,2.53a101.68,101.68,0,0,1-35.83,20.21,98.38,98.38,0,0,1-35,4.87c-24-1.12-45.26-9.3-63.45-25.1-6.87-6-6.82-6-6.37-15a5.09,5.09,0,0,1,.12-.66c3.31,1.8,6.57,3.7,10,5.36,3.11,1.53,6.09,3.37,9.56,4.05.31,8.19,3.84,14.51,11.16,18.36a20.67,20.67,0,0,0,28.18-8.91l.93-1.78A118.76,118.76,0,0,0-1182,630.3Z" transform="translate(1303.41 -439.06)"/><path class="cls-4" d="M-1107.72,573.08A101.12,101.12,0,0,0-1097.25,541a82.72,82.72,0,0,0,1.24-13,7.12,7.12,0,0,0,0-5.18c.37-3.66-.29-7.27-.59-10.89a3.28,3.28,0,0,1,.07-2c3,5.43,4.83,11.34,6.45,17.31a98.4,98.4,0,0,1,3.06,32.58,101.47,101.47,0,0,1-22.51,57.82,2.55,2.55,0,0,1-.55.33c-.16-1.81-.18-3.56-.48-5.26-1.22-7.12-5.26-12.18-11.6-15.5-.4-.2-.77-.45-1.16-.67,2.79-3.7,5.59-7.4,8.36-11.11.44-.59.77-1.25,1.15-1.88.54.61,1.1,1.19,1.62,1.81,2.23,2.7,5.57,3.19,8,1.17s2.63-5.2.56-8Q-1105.64,575.82-1107.72,573.08Z" transform="translate(1303.41 -439.06)"/><path class="cls-5" d="M-1182,630.3a118.76,118.76,0,0,1-21.28,2.23,36.26,36.26,0,0,0,1.43-11.49c0-6.19,4-10.49,9.51-10.45s9.79,4.51,9.82,10.57A51.76,51.76,0,0,0-1182,630.3Z" transform="translate(1303.41 -439.06)"/><path class="cls-5" d="M-1243.54,624.86c-3.47-.68-6.45-2.52-9.56-4.05-3.38-1.66-6.64-3.56-10-5.36,0-4.69,3.78-8.65,8.88-9.23a9.82,9.82,0,0,1,10.29,7.5C-1243.06,617.39-1243.58,621.14-1243.54,624.86Z" transform="translate(1303.41 -439.06)"/><path class="cls-4" d="M-1171.22,627.15c4.68-1,8.94-3.14,13.28-5,2-.86,3.71-2.2,5.87-2.63a25.13,25.13,0,0,1-.09,7.55,10,10,0,0,1-9.5,7.72C-1166,634.84-1169.86,631.8-1171.22,627.15Z" transform="translate(1303.41 -439.06)"/><path class="cls-6" d="M-1231.26,629.36c4.94.82,9.88,1.6,14.75,2.79C-1220.59,636.83-1229.28,634.61-1231.26,629.36Z" transform="translate(1303.41 -439.06)"/><path class="cls-6" d="M-1279.67,602.45a15.82,15.82,0,0,1,4.45,3.47,7.39,7.39,0,0,0,2.63,1.94c-.39,1.26-.79,2.52-1.37,4.35C-1276.24,608.8-1278.4,605.91-1279.67,602.45Z" transform="translate(1303.41 -439.06)"/><path class="cls-7" d="M-1135.38,607.38c-.76,1.16-1.31,2.6-3.14,2.27A5.48,5.48,0,0,1-1135.38,607.38Z" transform="translate(1303.41 -439.06)"/><path class="cls-7" d="M-1134.46,607a.93.93,0,0,1-.93.42C-1135.21,607-1134.83,607-1134.46,607Z" transform="translate(1303.41 -439.06)"/><path class="cls-1" d="M-1189.63,515.45A37.7,37.7,0,0,1-1152,553.3a37.74,37.74,0,0,1-37.73,37.57A37.65,37.65,0,0,1-1227.32,553,37.6,37.6,0,0,1-1189.63,515.45Zm26.69,37.59a26.82,26.82,0,0,0-26.9-26.7,26.92,26.92,0,0,0-26.6,27,26.94,26.94,0,0,0,26.82,26.6A26.84,26.84,0,0,0-1162.94,553Z" transform="translate(1303.41 -439.06)"/><path class="cls-8" d="M-1156,600.68c0,2,0,4,0,6.05-.09,3.62-2.35,6.07-5.54,6.07s-5.52-2.47-5.52-6.06c0-4.26-.08-8.51.29-12.76a5.16,5.16,0,0,1,5.48-5,5.26,5.26,0,0,1,5.35,5.21c0,1.12,0,2.24,0,3.36v3.14Z" transform="translate(1303.41 -439.06)"/><path class="cls-9" d="M-1242.87,558.08a5.29,5.29,0,0,1-5-3.76c-1.34-4.25-2.62-8.53-3.8-12.84a5.41,5.41,0,0,1,3.63-6.55,5.3,5.3,0,0,1,6.73,3.29c1.46,4.45,2.8,8.95,4,13.49C-1236.55,554.91-1239.49,558.14-1242.87,558.08Z" transform="translate(1303.41 -439.06)"/><path class="cls-10" d="M-1215.59,465.74a4.83,4.83,0,0,1-1.1,3.2c-2.43,3.39-4.82,6.8-7.29,10.15a5.49,5.49,0,0,1-7.88,1.36,5.48,5.48,0,0,1-1-7.76q3.65-5.2,7.46-10.31a5.29,5.29,0,0,1,6.33-1.94A5.38,5.38,0,0,1-1215.59,465.74Z" transform="translate(1303.41 -439.06)"/><path class="cls-9" d="M-1189.68,487.72a5.32,5.32,0,0,1-5.21-6.73c1.15-4.39,2.51-8.73,4-13a5.26,5.26,0,0,1,6.69-3.31,5.3,5.3,0,0,1,3.59,6.72c-1.18,4.22-2.45,8.43-3.81,12.6A5.13,5.13,0,0,1-1189.68,487.72Z" transform="translate(1303.41 -439.06)"/><path class="cls-9" d="M-1119.1,548.2c.43,0,1.18,0,1.92,0a5.25,5.25,0,0,1,5.14,5.18,5.24,5.24,0,0,1-4.68,5.6c-4.39.38-8.78.68-13.18.87a5.46,5.46,0,0,1-5.92-4.89,5.3,5.3,0,0,1,5-6C-1127,548.55-1123.22,548.46-1119.1,548.2Z" transform="translate(1303.41 -439.06)"/><path class="cls-11" d="M-1107.72,573.08q2.09,2.74,4.15,5.5c2.07,2.76,1.84,6-.56,8s-5.82,1.53-8-1.17c-.52-.62-1.08-1.2-1.62-1.81l-5.76-7.62c-2.18-2.88-2-6.11.58-8.1s5.71-1.52,8,1.3C-1109.91,570.47-1108.81,571.77-1107.72,573.08Z" transform="translate(1303.41 -439.06)"/><path class="cls-10" d="M-1137.73,513.68a5.36,5.36,0,0,1,5.36,6.8c-1.14,4.31-2.45,8.59-3.82,12.83a5.35,5.35,0,0,1-6.38,3.59,5.15,5.15,0,0,1-4-6.24c1.14-4.62,2.53-9.18,4-13.7A4.86,4.86,0,0,1-1137.73,513.68Z" transform="translate(1303.41 -439.06)"/><path class="cls-10" d="M-1162.18,494.9a5,5,0,0,1-.67,2.46c-2,3.68-3.9,7.4-5.94,11.05a5.3,5.3,0,0,1-7.46,2.3,5.37,5.37,0,0,1-2.16-7.33c1.9-3.8,3.89-7.57,5.94-11.3a5.44,5.44,0,0,1,6.42-2.88A5.3,5.3,0,0,1-1162.18,494.9Z" transform="translate(1303.41 -439.06)"/><path class="cls-10" d="M-1231.76,572.88a5.69,5.69,0,0,1-1.43,3.9c-2.53,3.24-5,6.48-7.62,9.69a5.48,5.48,0,0,1-7.78,1,5.38,5.38,0,0,1-1.06-7.43c2.69-3.67,5.54-7.23,8.42-10.76a5.11,5.11,0,0,1,5.92-1.41A5.42,5.42,0,0,1-1231.76,572.88Z" transform="translate(1303.41 -439.06)"/><path class="cls-10" d="M-1267.81,539.72a5.2,5.2,0,0,1-4.31-2.8c-2.13-3.93-4.25-7.86-6.23-11.86A5.3,5.3,0,0,1-1276,518a5.36,5.36,0,0,1,7.32,2.17c2.1,3.77,4.18,7.56,6.09,11.43S-1263.21,539.69-1267.81,539.72Z" transform="translate(1303.41 -439.06)"/><path class="cls-10" d="M-1281.55,566.44a4.85,4.85,0,0,1,2.65-3.84c3.92-2.17,7.85-4.31,11.85-6.32a5.34,5.34,0,0,1,7,2.07,5.24,5.24,0,0,1-1.62,7.3,137.58,137.58,0,0,1-12.65,6.69C-1277.77,573.92-1281.58,571-1281.55,566.44Z" transform="translate(1303.41 -439.06)"/><path class="cls-10" d="M-1152.2,481.48a5,5,0,0,1-4.47-2.35c-2.51-3.44-5-6.87-7.44-10.38a5.39,5.39,0,0,1,1.36-7.69,5.37,5.37,0,0,1,7.53,1.36c2.53,3.42,5,6.89,7.45,10.37a5.09,5.09,0,0,1,.42,5.89A5.12,5.12,0,0,1-1152.2,481.48Z" transform="translate(1303.41 -439.06)"/><path class="cls-10" d="M-1237.12,492.13a4.94,4.94,0,0,1-2.68,4c-3.84,2.15-7.72,4.24-11.65,6.22a5.35,5.35,0,0,1-7.32-2.27,5.25,5.25,0,0,1,2.14-7.32c3.76-2.14,7.57-4.21,11.45-6.12S-1237.19,487.2-1237.12,492.13Z" transform="translate(1303.41 -439.06)"/><path class="cls-10" d="M-1205.17,510.19a4.85,4.85,0,0,1-4.59-2.69c-2.17-3.91-4.31-7.85-6.31-11.86a5.37,5.37,0,0,1,2.19-7,5.22,5.22,0,0,1,7.27,1.72c2.39,4.13,4.66,8.35,6.66,12.69C-1198.38,506.47-1201.3,510.25-1205.17,510.19Z" transform="translate(1303.41 -439.06)"/><path class="cls-10" d="M-1223.85,609.31c-4.12,0-6.84-3.69-5.22-7.27a136.53,136.53,0,0,1,6.7-12.65,5.25,5.25,0,0,1,7.13-1.66,5.26,5.26,0,0,1,2.3,6.76c-2,4.23-4.28,8.37-6.59,12.46A4.46,4.46,0,0,1-1223.85,609.31Z" transform="translate(1303.41 -439.06)"/><path class="cls-10" d="M-1096,522.79a7.12,7.12,0,0,1,0,5.18c-2.06,3.8-4.08,7.62-6.21,11.38a5.22,5.22,0,0,1-6.43,2.66,5.31,5.31,0,0,1-3.82-5.63,4.74,4.74,0,0,1,.43-1.72c2.14-4.1,4.16-8.27,6.53-12.23C-1103.41,518.91-1099.23,519.18-1096,522.79Z" transform="translate(1303.41 -439.06)"/><path class="cls-10" d="M-1227.64,519.93c0,1.37,0,3.39,0,5.4a5.23,5.23,0,0,1-5.07,5.45,5.34,5.34,0,0,1-5.7-4.86c-.29-4.54-.43-9.1-.45-13.65A5.37,5.37,0,0,1-1234,507a5.33,5.33,0,0,1,6,4.5C-1227.53,514.05-1227.91,516.68-1227.64,519.93Z" transform="translate(1303.41 -439.06)"/><path class="cls-10" d="M-1135.68,584.57a6.26,6.26,0,0,1-3.18-1q-5.15-2.73-10.26-5.5c-3.05-1.65-4.19-4.75-2.8-7.51s4.65-3.85,7.83-2.22q5.58,2.86,11,5.92a5.34,5.34,0,0,1,2.67,6.27A5.39,5.39,0,0,1-1135.68,584.57Z" transform="translate(1303.41 -439.06)"/><path class="cls-10" d="M-1112.86,505.53c-.06,3.61-3.65,6.38-7,5a93.81,93.81,0,0,1-13.21-7c-2.14-1.32-2.63-4.59-1.41-6.85a5.23,5.23,0,0,1,6.72-2.43c4.29,2.07,8.47,4.38,12.63,6.71A4.69,4.69,0,0,1-1112.86,505.53Z" transform="translate(1303.41 -439.06)"/></svg>